<mxfile host="app.diagrams.net" modified="2021-05-06T16:16:01.389Z" agent="5.0 (Windows NT 10.0; Win64; x64) AppleWebKit/537.36 (KHTML, like Gecko) Chrome/90.0.4430.93 Safari/537.36" etag="7LR9LREx-hytjWPQ17xL" version="14.6.10" type="github">
  <diagram id="jywJAzUT2PhFmRTbQ-zW" name="Page-1">
    <mxGraphModel dx="1196" dy="450" grid="1" gridSize="10" guides="1" tooltips="1" connect="1" arrows="1" fold="1" page="1" pageScale="1" pageWidth="827" pageHeight="1169" math="0" shadow="0">
      <root>
        <mxCell id="0" />
        <mxCell id="1" parent="0" />
        <mxCell id="gqOl4t7NXjaHTSoWkf13-4" style="edgeStyle=orthogonalEdgeStyle;rounded=0;orthogonalLoop=1;jettySize=auto;html=1;exitX=0.25;exitY=0;exitDx=0;exitDy=0;" edge="1" parent="1" source="gqOl4t7NXjaHTSoWkf13-1">
          <mxGeometry relative="1" as="geometry">
            <mxPoint x="150" y="40" as="targetPoint" />
          </mxGeometry>
        </mxCell>
        <mxCell id="gqOl4t7NXjaHTSoWkf13-6" style="edgeStyle=orthogonalEdgeStyle;rounded=0;orthogonalLoop=1;jettySize=auto;html=1;exitX=0.5;exitY=0;exitDx=0;exitDy=0;" edge="1" parent="1" source="gqOl4t7NXjaHTSoWkf13-1">
          <mxGeometry relative="1" as="geometry">
            <mxPoint x="180" y="40" as="targetPoint" />
          </mxGeometry>
        </mxCell>
        <mxCell id="gqOl4t7NXjaHTSoWkf13-8" style="edgeStyle=orthogonalEdgeStyle;rounded=0;orthogonalLoop=1;jettySize=auto;html=1;exitX=0.75;exitY=0;exitDx=0;exitDy=0;" edge="1" parent="1" source="gqOl4t7NXjaHTSoWkf13-1">
          <mxGeometry relative="1" as="geometry">
            <mxPoint x="210" y="40" as="targetPoint" />
          </mxGeometry>
        </mxCell>
        <mxCell id="gqOl4t7NXjaHTSoWkf13-1" value="học viên" style="rounded=0;whiteSpace=wrap;html=1;" vertex="1" parent="1">
          <mxGeometry x="120" y="70" width="120" height="60" as="geometry" />
        </mxCell>
        <mxCell id="gqOl4t7NXjaHTSoWkf13-11" style="edgeStyle=orthogonalEdgeStyle;rounded=0;orthogonalLoop=1;jettySize=auto;html=1;exitX=0.25;exitY=0;exitDx=0;exitDy=0;" edge="1" parent="1" source="gqOl4t7NXjaHTSoWkf13-2">
          <mxGeometry relative="1" as="geometry">
            <mxPoint x="450" y="40" as="targetPoint" />
          </mxGeometry>
        </mxCell>
        <mxCell id="gqOl4t7NXjaHTSoWkf13-13" style="edgeStyle=orthogonalEdgeStyle;rounded=0;orthogonalLoop=1;jettySize=auto;html=1;exitX=0.5;exitY=0;exitDx=0;exitDy=0;" edge="1" parent="1" source="gqOl4t7NXjaHTSoWkf13-2">
          <mxGeometry relative="1" as="geometry">
            <mxPoint x="480" y="40" as="targetPoint" />
          </mxGeometry>
        </mxCell>
        <mxCell id="gqOl4t7NXjaHTSoWkf13-15" style="edgeStyle=orthogonalEdgeStyle;rounded=0;orthogonalLoop=1;jettySize=auto;html=1;exitX=0.75;exitY=0;exitDx=0;exitDy=0;" edge="1" parent="1" source="gqOl4t7NXjaHTSoWkf13-2">
          <mxGeometry relative="1" as="geometry">
            <mxPoint x="520" y="40" as="targetPoint" />
          </mxGeometry>
        </mxCell>
        <mxCell id="gqOl4t7NXjaHTSoWkf13-2" value="giáo viên" style="rounded=0;whiteSpace=wrap;html=1;" vertex="1" parent="1">
          <mxGeometry x="420" y="70" width="120" height="60" as="geometry" />
        </mxCell>
        <mxCell id="gqOl4t7NXjaHTSoWkf13-17" style="edgeStyle=orthogonalEdgeStyle;rounded=0;orthogonalLoop=1;jettySize=auto;html=1;exitX=0.75;exitY=1;exitDx=0;exitDy=0;" edge="1" parent="1" source="gqOl4t7NXjaHTSoWkf13-3">
          <mxGeometry relative="1" as="geometry">
            <mxPoint x="420" y="340" as="targetPoint" />
          </mxGeometry>
        </mxCell>
        <mxCell id="gqOl4t7NXjaHTSoWkf13-19" style="edgeStyle=orthogonalEdgeStyle;rounded=0;orthogonalLoop=1;jettySize=auto;html=1;exitX=0.25;exitY=1;exitDx=0;exitDy=0;" edge="1" parent="1" source="gqOl4t7NXjaHTSoWkf13-3">
          <mxGeometry relative="1" as="geometry">
            <mxPoint x="360" y="340" as="targetPoint" />
          </mxGeometry>
        </mxCell>
        <mxCell id="gqOl4t7NXjaHTSoWkf13-3" value="môn học" style="rounded=0;whiteSpace=wrap;html=1;" vertex="1" parent="1">
          <mxGeometry x="330" y="250" width="120" height="60" as="geometry" />
        </mxCell>
        <mxCell id="gqOl4t7NXjaHTSoWkf13-5" value="MaHV" style="text;html=1;align=center;verticalAlign=middle;resizable=0;points=[];autosize=1;strokeColor=none;" vertex="1" parent="1">
          <mxGeometry x="115" y="10" width="50" height="20" as="geometry" />
        </mxCell>
        <mxCell id="gqOl4t7NXjaHTSoWkf13-7" value="TênHV" style="text;html=1;align=center;verticalAlign=middle;resizable=0;points=[];autosize=1;strokeColor=none;" vertex="1" parent="1">
          <mxGeometry x="155" y="10" width="50" height="20" as="geometry" />
        </mxCell>
        <mxCell id="gqOl4t7NXjaHTSoWkf13-10" value="tuôiHV" style="text;html=1;align=center;verticalAlign=middle;resizable=0;points=[];autosize=1;strokeColor=none;" vertex="1" parent="1">
          <mxGeometry x="200" y="10" width="50" height="20" as="geometry" />
        </mxCell>
        <mxCell id="gqOl4t7NXjaHTSoWkf13-12" value="MaGV" style="text;html=1;align=center;verticalAlign=middle;resizable=0;points=[];autosize=1;strokeColor=none;" vertex="1" parent="1">
          <mxGeometry x="425" y="10" width="50" height="20" as="geometry" />
        </mxCell>
        <mxCell id="gqOl4t7NXjaHTSoWkf13-14" value="TênGV" style="text;html=1;align=center;verticalAlign=middle;resizable=0;points=[];autosize=1;strokeColor=none;" vertex="1" parent="1">
          <mxGeometry x="465" y="10" width="50" height="20" as="geometry" />
        </mxCell>
        <mxCell id="gqOl4t7NXjaHTSoWkf13-16" value="tuổi" style="text;html=1;align=center;verticalAlign=middle;resizable=0;points=[];autosize=1;strokeColor=none;" vertex="1" parent="1">
          <mxGeometry x="505" y="10" width="30" height="20" as="geometry" />
        </mxCell>
        <mxCell id="gqOl4t7NXjaHTSoWkf13-18" value="MaMH" style="text;html=1;align=center;verticalAlign=middle;resizable=0;points=[];autosize=1;strokeColor=none;" vertex="1" parent="1">
          <mxGeometry x="395" y="350" width="50" height="20" as="geometry" />
        </mxCell>
        <mxCell id="gqOl4t7NXjaHTSoWkf13-20" value="TenMH" style="text;html=1;align=center;verticalAlign=middle;resizable=0;points=[];autosize=1;strokeColor=none;" vertex="1" parent="1">
          <mxGeometry x="340" y="350" width="50" height="20" as="geometry" />
        </mxCell>
        <mxCell id="gqOl4t7NXjaHTSoWkf13-22" style="edgeStyle=orthogonalEdgeStyle;rounded=0;orthogonalLoop=1;jettySize=auto;html=1;exitX=0.25;exitY=1;exitDx=0;exitDy=0;" edge="1" parent="1" source="gqOl4t7NXjaHTSoWkf13-21">
          <mxGeometry relative="1" as="geometry">
            <mxPoint x="70" y="380" as="targetPoint" />
          </mxGeometry>
        </mxCell>
        <mxCell id="gqOl4t7NXjaHTSoWkf13-24" style="edgeStyle=orthogonalEdgeStyle;rounded=0;orthogonalLoop=1;jettySize=auto;html=1;exitX=0.75;exitY=1;exitDx=0;exitDy=0;" edge="1" parent="1" source="gqOl4t7NXjaHTSoWkf13-21">
          <mxGeometry relative="1" as="geometry">
            <mxPoint x="130" y="380" as="targetPoint" />
          </mxGeometry>
        </mxCell>
        <mxCell id="gqOl4t7NXjaHTSoWkf13-21" value="Lop Học" style="rounded=0;whiteSpace=wrap;html=1;" vertex="1" parent="1">
          <mxGeometry x="40" y="290" width="120" height="60" as="geometry" />
        </mxCell>
        <mxCell id="gqOl4t7NXjaHTSoWkf13-23" value="MaLop" style="text;html=1;align=center;verticalAlign=middle;resizable=0;points=[];autosize=1;strokeColor=none;" vertex="1" parent="1">
          <mxGeometry x="45" y="390" width="50" height="20" as="geometry" />
        </mxCell>
        <mxCell id="gqOl4t7NXjaHTSoWkf13-25" value="TenLop&lt;br&gt;" style="text;html=1;align=center;verticalAlign=middle;resizable=0;points=[];autosize=1;strokeColor=none;" vertex="1" parent="1">
          <mxGeometry x="105" y="390" width="50" height="20" as="geometry" />
        </mxCell>
        <mxCell id="gqOl4t7NXjaHTSoWkf13-26" value="Thuộc" style="rhombus;whiteSpace=wrap;html=1;" vertex="1" parent="1">
          <mxGeometry x="30" y="140" width="80" height="80" as="geometry" />
        </mxCell>
        <mxCell id="gqOl4t7NXjaHTSoWkf13-27" value="" style="endArrow=none;html=1;rounded=0;edgeStyle=orthogonalEdgeStyle;exitX=0.5;exitY=0;exitDx=0;exitDy=0;entryX=0;entryY=0.5;entryDx=0;entryDy=0;" edge="1" parent="1" source="gqOl4t7NXjaHTSoWkf13-26" target="gqOl4t7NXjaHTSoWkf13-1">
          <mxGeometry width="50" height="50" relative="1" as="geometry">
            <mxPoint x="140" y="200" as="sourcePoint" />
            <mxPoint x="190" y="150" as="targetPoint" />
          </mxGeometry>
        </mxCell>
        <mxCell id="gqOl4t7NXjaHTSoWkf13-29" value="" style="endArrow=none;html=1;rounded=0;edgeStyle=orthogonalEdgeStyle;exitX=0.5;exitY=1;exitDx=0;exitDy=0;entryX=0.25;entryY=0;entryDx=0;entryDy=0;" edge="1" parent="1" source="gqOl4t7NXjaHTSoWkf13-26" target="gqOl4t7NXjaHTSoWkf13-21">
          <mxGeometry width="50" height="50" relative="1" as="geometry">
            <mxPoint x="140" y="200" as="sourcePoint" />
            <mxPoint x="190" y="150" as="targetPoint" />
          </mxGeometry>
        </mxCell>
        <mxCell id="gqOl4t7NXjaHTSoWkf13-30" value="Chọn lớp trưởng" style="rhombus;whiteSpace=wrap;html=1;" vertex="1" parent="1">
          <mxGeometry x="300" y="70" width="80" height="80" as="geometry" />
        </mxCell>
        <mxCell id="gqOl4t7NXjaHTSoWkf13-32" value="" style="endArrow=none;html=1;rounded=0;edgeStyle=orthogonalEdgeStyle;entryX=1.008;entryY=0.367;entryDx=0;entryDy=0;entryPerimeter=0;exitX=0.013;exitY=0.425;exitDx=0;exitDy=0;exitPerimeter=0;" edge="1" parent="1" source="gqOl4t7NXjaHTSoWkf13-30" target="gqOl4t7NXjaHTSoWkf13-1">
          <mxGeometry width="50" height="50" relative="1" as="geometry">
            <mxPoint x="220" y="230" as="sourcePoint" />
            <mxPoint x="270" y="180" as="targetPoint" />
            <Array as="points">
              <mxPoint x="301" y="92" />
            </Array>
          </mxGeometry>
        </mxCell>
        <mxCell id="gqOl4t7NXjaHTSoWkf13-37" style="edgeStyle=orthogonalEdgeStyle;rounded=0;orthogonalLoop=1;jettySize=auto;html=1;exitX=1;exitY=0;exitDx=0;exitDy=0;" edge="1" parent="1" source="gqOl4t7NXjaHTSoWkf13-34">
          <mxGeometry relative="1" as="geometry">
            <mxPoint x="630" y="190" as="targetPoint" />
          </mxGeometry>
        </mxCell>
        <mxCell id="gqOl4t7NXjaHTSoWkf13-39" style="edgeStyle=orthogonalEdgeStyle;rounded=0;orthogonalLoop=1;jettySize=auto;html=1;exitX=1;exitY=0.5;exitDx=0;exitDy=0;" edge="1" parent="1" source="gqOl4t7NXjaHTSoWkf13-34">
          <mxGeometry relative="1" as="geometry">
            <mxPoint x="660" y="240" as="targetPoint" />
          </mxGeometry>
        </mxCell>
        <mxCell id="gqOl4t7NXjaHTSoWkf13-34" value="Dạy" style="rhombus;whiteSpace=wrap;html=1;" vertex="1" parent="1">
          <mxGeometry x="530" y="200" width="80" height="80" as="geometry" />
        </mxCell>
        <mxCell id="gqOl4t7NXjaHTSoWkf13-35" value="" style="endArrow=none;html=1;rounded=0;edgeStyle=orthogonalEdgeStyle;entryX=1;entryY=0.5;entryDx=0;entryDy=0;exitX=0.5;exitY=0;exitDx=0;exitDy=0;" edge="1" parent="1" source="gqOl4t7NXjaHTSoWkf13-34" target="gqOl4t7NXjaHTSoWkf13-2">
          <mxGeometry width="50" height="50" relative="1" as="geometry">
            <mxPoint x="380" y="270" as="sourcePoint" />
            <mxPoint x="430" y="220" as="targetPoint" />
            <Array as="points">
              <mxPoint x="570" y="180" />
              <mxPoint x="570" y="100" />
            </Array>
          </mxGeometry>
        </mxCell>
        <mxCell id="gqOl4t7NXjaHTSoWkf13-36" value="" style="endArrow=none;html=1;rounded=0;edgeStyle=orthogonalEdgeStyle;entryX=0.5;entryY=1;entryDx=0;entryDy=0;" edge="1" parent="1" target="gqOl4t7NXjaHTSoWkf13-34">
          <mxGeometry width="50" height="50" relative="1" as="geometry">
            <mxPoint x="450" y="270" as="sourcePoint" />
            <mxPoint x="430" y="220" as="targetPoint" />
          </mxGeometry>
        </mxCell>
        <mxCell id="gqOl4t7NXjaHTSoWkf13-38" value="HocKy" style="text;html=1;align=center;verticalAlign=middle;resizable=0;points=[];autosize=1;strokeColor=none;" vertex="1" parent="1">
          <mxGeometry x="610" y="160" width="50" height="20" as="geometry" />
        </mxCell>
        <mxCell id="gqOl4t7NXjaHTSoWkf13-40" value="Namhoc" style="text;html=1;align=center;verticalAlign=middle;resizable=0;points=[];autosize=1;strokeColor=none;" vertex="1" parent="1">
          <mxGeometry x="640" y="220" width="60" height="20" as="geometry" />
        </mxCell>
        <mxCell id="gqOl4t7NXjaHTSoWkf13-41" value="" style="endArrow=none;html=1;rounded=0;edgeStyle=orthogonalEdgeStyle;entryX=0.5;entryY=1;entryDx=0;entryDy=0;exitX=0.5;exitY=1;exitDx=0;exitDy=0;" edge="1" parent="1" source="gqOl4t7NXjaHTSoWkf13-1" target="gqOl4t7NXjaHTSoWkf13-30">
          <mxGeometry width="50" height="50" relative="1" as="geometry">
            <mxPoint x="260" y="300" as="sourcePoint" />
            <mxPoint x="310" y="250" as="targetPoint" />
          </mxGeometry>
        </mxCell>
        <mxCell id="gqOl4t7NXjaHTSoWkf13-43" value="" style="endArrow=none;html=1;rounded=0;edgeStyle=orthogonalEdgeStyle;exitX=0.25;exitY=1;exitDx=0;exitDy=0;" edge="1" parent="1" source="gqOl4t7NXjaHTSoWkf13-1" target="gqOl4t7NXjaHTSoWkf13-44">
          <mxGeometry width="50" height="50" relative="1" as="geometry">
            <mxPoint x="260" y="300" as="sourcePoint" />
            <mxPoint x="200" y="270" as="targetPoint" />
          </mxGeometry>
        </mxCell>
        <mxCell id="gqOl4t7NXjaHTSoWkf13-46" style="edgeStyle=orthogonalEdgeStyle;rounded=0;orthogonalLoop=1;jettySize=auto;html=1;exitX=0;exitY=1;exitDx=0;exitDy=0;" edge="1" parent="1" source="gqOl4t7NXjaHTSoWkf13-44">
          <mxGeometry relative="1" as="geometry">
            <mxPoint x="205" y="340" as="targetPoint" />
          </mxGeometry>
        </mxCell>
        <mxCell id="gqOl4t7NXjaHTSoWkf13-48" style="edgeStyle=orthogonalEdgeStyle;rounded=0;orthogonalLoop=1;jettySize=auto;html=1;exitX=1;exitY=1;exitDx=0;exitDy=0;" edge="1" parent="1" source="gqOl4t7NXjaHTSoWkf13-44">
          <mxGeometry relative="1" as="geometry">
            <mxPoint x="245" y="340" as="targetPoint" />
          </mxGeometry>
        </mxCell>
        <mxCell id="gqOl4t7NXjaHTSoWkf13-44" value="Thi" style="rhombus;whiteSpace=wrap;html=1;" vertex="1" parent="1">
          <mxGeometry x="185" y="240" width="80" height="80" as="geometry" />
        </mxCell>
        <mxCell id="gqOl4t7NXjaHTSoWkf13-45" value="" style="endArrow=none;html=1;rounded=0;edgeStyle=orthogonalEdgeStyle;entryX=0;entryY=0.5;entryDx=0;entryDy=0;exitX=1;exitY=0.5;exitDx=0;exitDy=0;" edge="1" parent="1" source="gqOl4t7NXjaHTSoWkf13-44" target="gqOl4t7NXjaHTSoWkf13-3">
          <mxGeometry width="50" height="50" relative="1" as="geometry">
            <mxPoint x="260" y="300" as="sourcePoint" />
            <mxPoint x="310" y="250" as="targetPoint" />
          </mxGeometry>
        </mxCell>
        <mxCell id="gqOl4t7NXjaHTSoWkf13-47" value="Lần thi" style="text;html=1;align=center;verticalAlign=middle;resizable=0;points=[];autosize=1;strokeColor=none;" vertex="1" parent="1">
          <mxGeometry x="175" y="350" width="50" height="20" as="geometry" />
        </mxCell>
        <mxCell id="gqOl4t7NXjaHTSoWkf13-49" value="Điểm" style="text;html=1;align=center;verticalAlign=middle;resizable=0;points=[];autosize=1;strokeColor=none;" vertex="1" parent="1">
          <mxGeometry x="220" y="350" width="40" height="20" as="geometry" />
        </mxCell>
      </root>
    </mxGraphModel>
  </diagram>
</mxfile>
